<svg xmlns="http://www.w3.org/2000/svg" viewBox="0 0 258.73 152.77"><defs><style>.cls-1{fill:#38687f;}.cls-1,.cls-2{fill-rule:evenodd;}.cls-2{fill:#231f20;}.cls-3{fill:none;stroke:#231f20;stroke-miterlimit:2.61;stroke-width:0.5px;}</style></defs><g id="Layer_2" data-name="Layer 2"><g id="Layer_1-2" data-name="Layer 1"><path class="cls-1" d="M10.41,129.25v1.6H0v-1.6H.86c1,0,1.73-.72,2.19-2.13a30.44,30.44,0,0,0,.43-6.71V82.14a47.74,47.74,0,0,0-.23-5.92,4.4,4.4,0,0,0-.74-1.87,2.15,2.15,0,0,0-1.65-1H0V71.7H10.41v1.61H9.54c-1,0-1.72.71-2.17,2.13a29.39,29.39,0,0,0-.44,6.7v38.27a45.75,45.75,0,0,0,.23,5.92,4.26,4.26,0,0,0,.75,1.88,2.12,2.12,0,0,0,1.63,1Zm37.87,1.6L38.9,81.08v39.51c0,3.65.17,5.92.49,6.83.45,1.22,1.15,1.83,2.12,1.83h.87v1.6H33.85v-1.6h.87c1,0,1.77-.76,2.21-2.28a30.89,30.89,0,0,0,.4-6.38V82A30.3,30.3,0,0,0,37,76.28,4.84,4.84,0,0,0,36,74.16a2.63,2.63,0,0,0-2.18-.85V71.7h7l8.75,46.24L58.24,71.7h6.89v1.61h-.84c-1.06,0-1.8.76-2.24,2.27a31,31,0,0,0-.4,6.38v38.63c0,3.65.17,5.92.51,6.83q.66,1.83,2.13,1.83h.84v1.6H54.73v-1.6h.87c1,0,1.78-.76,2.21-2.28a30.89,30.89,0,0,0,.4-6.38V81.08l-9.34,49.77Zm56-19.72H94.89l-1.62,9.27a33.26,33.26,0,0,0-.61,5.15,5.14,5.14,0,0,0,.53,2.37,3,3,0,0,0,2.28,1.33v1.6H87.81v-1.6a3.47,3.47,0,0,0,2-1.7,44.92,44.92,0,0,0,2-8.5l8.54-48.69h.6l8.45,49.2a37.74,37.74,0,0,0,1.85,7.71,3.1,3.1,0,0,0,2.32,2v1.6H104v-1.6a2.36,2.36,0,0,0,2-1.18,5.35,5.35,0,0,0,.5-2.45,40.94,40.94,0,0,0-.71-6.07Zm-.55-3.21L99.66,84.06l-4.2,23.86Zm54-37.56L158.33,89h-.65a42.69,42.69,0,0,0-2.45-10.45q-2.16-5.07-5.55-5.07-4.6,0-7,8.93a70.23,70.23,0,0,0-2,18A82.3,82.3,0,0,0,142,115.79q1.34,7,3.51,10.21c1.45,2.16,2.94,3.25,4.47,3.25a4.72,4.72,0,0,0,2.6-.84A9.35,9.35,0,0,0,155,126V108.81a38.21,38.21,0,0,0-.27-5.82,4.89,4.89,0,0,0-.86-2.1,2.49,2.49,0,0,0-2.05-.73v-1.6h9.37v1.6h-.44c-.93,0-1.56.76-1.91,2.28a35.86,35.86,0,0,0-.35,6.37v18.13a16.2,16.2,0,0,1-4.06,4,8.13,8.13,0,0,1-4.45,1.27q-7,0-10.67-11a60.4,60.4,0,0,1-2.73-19,70.6,70.6,0,0,1,1.54-15c1.21-5.66,2.88-10,5-13.08q2.65-3.8,6.29-3.8a5.49,5.49,0,0,1,2.41.53,15.77,15.77,0,0,1,3.06,2.3c.66.61,1.11.92,1.34.92s.42-.25.59-.76a13.4,13.4,0,0,0,.28-3Zm39.4,0c3.14,0,5.88,2.92,8.18,8.75s3.45,13.1,3.45,21.82c0,9-1.16,16.43-3.48,22.37s-5.13,8.89-8.44,8.89-6.14-2.9-8.4-8.69S185,110.24,185,101.05q0-14.07,3.93-23,3.42-7.72,8.17-7.72m-.34,3.13q-3.24,0-5.21,5.88-2.44,7.35-2.45,21.48,0,14.48,2.54,22.28c1.3,4,3,5.93,5.13,5.93q3.42,0,5.64-6.49t2.22-20.5q0-15.19-2.45-22.65c-1.31-4-3.11-5.93-5.42-5.93M249,70.36V90.79h-.66a53.65,53.65,0,0,0-1.16-9.36,14.61,14.61,0,0,0-2.38-5.53c-1-1.37-2.09-2.06-3.18-2.06-1.25,0-2.28.93-3.08,2.77a15.36,15.36,0,0,0-1.22,6.3,15.19,15.19,0,0,0,.76,4.94q1.13,3.25,5.29,8.71a55.17,55.17,0,0,1,4.66,6.83A21.27,21.27,0,0,1,250,109a33,33,0,0,1,.67,6.77,28.69,28.69,0,0,1-2.13,11.57c-1.43,3.24-3.28,4.86-5.51,4.86a4.91,4.91,0,0,1-2-.4,12.79,12.79,0,0,1-2.3-1.61,6.19,6.19,0,0,0-2.21-1.38c-.3,0-.54.22-.72.65a11.25,11.25,0,0,0-.37,2.74h-.66V111.94h.66a58,58,0,0,0,1.25,9.51,13.93,13.93,0,0,0,2.4,5.25,4.56,4.56,0,0,0,3.56,2.1c1.49,0,2.67-1,3.53-2.89a16.5,16.5,0,0,0,1.3-6.82,21,21,0,0,0-.48-4.42,16.45,16.45,0,0,0-1.53-4.16A60.94,60.94,0,0,0,241.6,105a55,55,0,0,1-4.45-6.74,23.2,23.2,0,0,1-2-5.58,30.68,30.68,0,0,1-.68-6.73,27.2,27.2,0,0,1,2-11c1.33-3.06,3-4.6,5.1-4.6q1.95,0,4.11,2.31c.67.73,1.15,1.09,1.42,1.09s.57-.23.76-.67a10.36,10.36,0,0,0,.48-2.73Z"/><path class="cls-2" d="M3.3,138.08a.21.21,0,0,1,0-.12s0,0,.1-.05a.09.09,0,0,1,.08,0,.35.35,0,0,1,0,.13V152.3a.19.19,0,0,1,0,.12.12.12,0,0,1-.1.06.09.09,0,0,1-.08,0,.35.35,0,0,1,0-.13Zm3.28.38V152.3a.15.15,0,0,1,0,.12.09.09,0,0,1-.09.06.08.08,0,0,1-.07,0,.21.21,0,0,1,0-.13V138.09a.32.32,0,0,1,0-.16.08.08,0,0,1,.07,0s.07,0,.09,0l0,.07,0,.06,8.75,13.85V138.08a.28.28,0,0,1,0-.13s0,0,.07,0a.11.11,0,0,1,.1,0,.26.26,0,0,1,0,.14v14.2a.24.24,0,0,1,0,.14.08.08,0,0,1-.08.06c-.05,0-.1,0-.15-.13l0,0Zm20.14,1.81,0,0,.05.13a.2.2,0,0,1,0,.11.12.12,0,0,1-.09.05.05.05,0,0,1-.05,0l-.05-.05,0-.07a4.44,4.44,0,0,0-1.81-1.66,5.59,5.59,0,0,0-2.64-.63,4.29,4.29,0,0,0-3,1,3.39,3.39,0,0,0-1.15,2.65,3,3,0,0,0,.81,2.19,4.56,4.56,0,0,0,2.44,1.13l1.13.18a7.47,7.47,0,0,1,2.56.74,2.75,2.75,0,0,1,1,1.09,3.44,3.44,0,0,1,.34,1.56,3.56,3.56,0,0,1-1.09,2.69,3.79,3.79,0,0,1-2.78,1.06,5.19,5.19,0,0,1-1.39-.18,4.68,4.68,0,0,1-1.23-.55,6.3,6.3,0,0,1-.73-.59,3,3,0,0,1-.4-.41l0-.05s0,0,0,0a.22.22,0,0,1,0-.1.2.2,0,0,1,0-.11.12.12,0,0,1,.08,0l.07,0,.06.07,0,.06a4.23,4.23,0,0,0,1.54,1.19,4.61,4.61,0,0,0,2,.43,3.69,3.69,0,0,0,2.62-1,3.31,3.31,0,0,0,1-2.48,3.13,3.13,0,0,0-.34-1.45,2.37,2.37,0,0,0-.93-1,7.22,7.22,0,0,0-2.4-.66l-1-.16a5.11,5.11,0,0,1-2.72-1.21,3.28,3.28,0,0,1-.88-2.4A3.71,3.71,0,0,1,18.91,139a4.79,4.79,0,0,1,3.31-1.1,5.39,5.39,0,0,1,1.66.26,5,5,0,0,1,1.48.73,4.91,4.91,0,0,1,.87.78,3.23,3.23,0,0,1,.49.64m5.23,12a.15.15,0,0,1,0,.12s0,.06-.08.06a.08.08,0,0,1-.08,0,.21.21,0,0,1,0-.13v-14H27.89a.13.13,0,0,1-.09,0,.17.17,0,0,1,0-.12.16.16,0,0,1,0-.11.15.15,0,0,1,.1,0H35.8c.05,0,.08,0,.09,0a.21.21,0,0,1,0,.13.16.16,0,0,1,0,.09.12.12,0,0,1-.09,0H32Zm5.8-14.22a.21.21,0,0,1,0-.12.13.13,0,0,1,.09-.05c.05,0,.07,0,.09,0a.35.35,0,0,1,0,.13V152.3a.15.15,0,0,1,0,.12.1.1,0,0,1-.09.06.09.09,0,0,1-.08,0s0-.07,0-.13ZM44,152.3a.19.19,0,0,1,0,.12.12.12,0,0,1-.09.06.11.11,0,0,1-.09,0s0-.07,0-.13v-14H40a.13.13,0,0,1-.09,0,.17.17,0,0,1,0-.12.16.16,0,0,1,0-.11.15.15,0,0,1,.1,0h7.9a.11.11,0,0,1,.1,0,.21.21,0,0,1,0,.13.12.12,0,0,1,0,.09.1.1,0,0,1-.09,0H44Zm14.87-5.74a9.72,9.72,0,0,1-.24,2.28,4.82,4.82,0,0,1-.77,1.65,5,5,0,0,1-1.65,1.5,4.3,4.3,0,0,1-2,.51,4.22,4.22,0,0,1-2-.51,5.1,5.1,0,0,1-1.66-1.5,4.8,4.8,0,0,1-.76-1.65,8.76,8.76,0,0,1-.25-2.28v-8.48a.29.29,0,0,1,.05-.13.12.12,0,0,1,.08,0s.08,0,.09,0a.23.23,0,0,1,0,.13v8.43a9,9,0,0,0,.23,2.26,4.53,4.53,0,0,0,.75,1.58,4.7,4.7,0,0,0,1.56,1.38,4.12,4.12,0,0,0,3.82,0,4.7,4.7,0,0,0,1.58-1.38,4.48,4.48,0,0,0,.75-1.57,9.44,9.44,0,0,0,.23-2.27v-8.43a.28.28,0,0,1,0-.13.13.13,0,0,1,.09,0,.08.08,0,0,1,.08,0,.21.21,0,0,1,0,.13Zm5.71,5.74a.19.19,0,0,1,0,.12.1.1,0,0,1-.09.06.08.08,0,0,1-.08,0,.21.21,0,0,1,0-.13v-14H60.52a.15.15,0,0,1-.09,0,.17.17,0,0,1,0-.12.16.16,0,0,1,0-.11.17.17,0,0,1,.1,0h7.91a.11.11,0,0,1,.1,0,.21.21,0,0,1,0,.13.18.18,0,0,1,0,.09.12.12,0,0,1-.09,0H64.59Zm5.64-4.24H69a.11.11,0,0,1-.1-.05.21.21,0,0,1,0-.12s0-.09,0-.11a.2.2,0,0,1,.1,0h1.2v-9.59a.15.15,0,0,1,.07-.13.24.24,0,0,1,.18-.05H77.9a.14.14,0,0,1,.1.05.27.27,0,0,1,0,.12.15.15,0,0,1,0,.1.13.13,0,0,1-.1,0H70.47v9.47h7.66a.11.11,0,0,1,.08.06.15.15,0,0,1,0,.11.13.13,0,0,1,0,.1.1.1,0,0,1-.09,0H70.47v4H77.9a.18.18,0,0,1,.1,0,.17.17,0,0,1,0,.1.21.21,0,0,1,0,.13s0,0-.1,0H70.48c-.11,0-.17,0-.21-.07a.49.49,0,0,1,0-.25ZM83,145.16a8.67,8.67,0,0,0,.43,2.67,7.55,7.55,0,0,0,1.22,2.28,6,6,0,0,0,1.81,1.52,4.47,4.47,0,0,0,4.26,0,5.82,5.82,0,0,0,1.82-1.52,7,7,0,0,0,1.21-2.26,8.85,8.85,0,0,0,.41-2.69,9,9,0,0,0-.41-2.72,7,7,0,0,0-1.21-2.27,5.5,5.5,0,0,0-1.8-1.52,4.69,4.69,0,0,0-2.15-.51,4.54,4.54,0,0,0-1.88.4,5.29,5.29,0,0,0-1.65,1.18,7.06,7.06,0,0,0-1.52,2.45,8.46,8.46,0,0,0-.54,3m-.24,0a8.93,8.93,0,0,1,.45-2.81A7.47,7.47,0,0,1,84.51,140a5.78,5.78,0,0,1,1.88-1.57,4.87,4.87,0,0,1,2.23-.55,4.92,4.92,0,0,1,2.25.55A5.58,5.58,0,0,1,92.75,140,7.63,7.63,0,0,1,94,142.33a9,9,0,0,1,.44,2.82,9.15,9.15,0,0,1-.34,2.47,7.79,7.79,0,0,1-1,2.17,5.94,5.94,0,0,1-2,2,4.62,4.62,0,0,1-4.7.15,6.09,6.09,0,0,1-1.9-1.59,7.83,7.83,0,0,1-1.26-2.38,8.86,8.86,0,0,1-.45-2.79m13.58,2.91H95.19a.12.12,0,0,1-.1-.05.21.21,0,0,1,0-.12s0-.09,0-.11a.17.17,0,0,1,.1,0h1.19v-9.59a.2.2,0,0,1,.06-.13.29.29,0,0,1,.19-.05h7.44a.1.1,0,0,1,.08.05.19.19,0,0,1,0,.12.15.15,0,0,1,0,.1.12.12,0,0,1-.09,0H96.63v9.47h7.65a.1.1,0,0,1,.09.06.15.15,0,0,1,0,.11.11.11,0,0,1,0,.1s-.05,0-.09,0H96.63v4.24a.19.19,0,0,1,0,.12.11.11,0,0,1-.1.06.09.09,0,0,1-.08,0,.22.22,0,0,1,0-.13ZM111.88,138a13,13,0,0,1,1.86.1,5.16,5.16,0,0,1,1.22.33,3.87,3.87,0,0,1,1.88,1.76,6.34,6.34,0,0,1,.65,3,6.58,6.58,0,0,1-.49,2.62,3.92,3.92,0,0,1-1.37,1.77,3.77,3.77,0,0,1-1.5.62,17.2,17.2,0,0,1-3.13.18h-1.46v3.94a.19.19,0,0,1,0,.12.12.12,0,0,1-.1.06.1.1,0,0,1-.08,0,.23.23,0,0,1,0-.13V138.16a.15.15,0,0,1,.07-.13.26.26,0,0,1,.18-.05Zm.29.3h-2.63v9.78h1.72a18.12,18.12,0,0,0,2.71-.14,4.17,4.17,0,0,0,1.33-.47,3.49,3.49,0,0,0,1.43-1.67,6.19,6.19,0,0,0,.51-2.6,4.94,4.94,0,0,0-1.23-3.7,5.36,5.36,0,0,0-3.84-1.2m7.33,13.82H127l.08,0a.18.18,0,0,1,0,.1.21.21,0,0,1,0,.13.12.12,0,0,1-.09,0h-7.43c-.11,0-.18,0-.21-.07a.39.39,0,0,1,0-.25v-14a.16.16,0,0,1,0-.12s0-.05.08-.05a.13.13,0,0,1,.09,0,.28.28,0,0,1,0,.13Zm10.05-4.35h7.57l-3.77-9.4Zm-.12.31-1.78,4.37a.15.15,0,0,1,0,.06h0a.16.16,0,0,1-.09,0,.18.18,0,0,1,0-.11v0s0,0,0,0l1.73-4.24H128a.11.11,0,0,1-.09-.05.21.21,0,0,1,0-.12.16.16,0,0,1,0-.11.2.2,0,0,1,.1,0h1.27l3.95-9.67s0,0,0,0,.06-.12.1-.13.11.05.15.14l0,0,5.7,14.22s0,0,0,0v0a.28.28,0,0,1,0,.13.11.11,0,0,1-.09.05,0,0,0,0,1,0,0,.16.16,0,0,1-.05-.08l-1.78-4.36Zm19.39-7.79,0,0,.06.13a.2.2,0,0,1,0,.11.14.14,0,0,1-.1.05l-.05,0,0-.05,0-.07a4.44,4.44,0,0,0-1.81-1.66,5.62,5.62,0,0,0-2.64-.63,4.29,4.29,0,0,0-3,1,3.4,3.4,0,0,0-1.16,2.65,3,3,0,0,0,.82,2.19,4.53,4.53,0,0,0,2.44,1.13l1.13.18a7.55,7.55,0,0,1,2.56.74,2.65,2.65,0,0,1,1,1.09,3.44,3.44,0,0,1,.34,1.56,3.59,3.59,0,0,1-1.08,2.69,3.79,3.79,0,0,1-2.78,1.06,5.14,5.14,0,0,1-1.39-.18,4.54,4.54,0,0,1-1.23-.55,5.62,5.62,0,0,1-.74-.59,3.39,3.39,0,0,1-.39-.41l0-.05s0,0,0,0a.26.26,0,0,1,0-.1.21.21,0,0,1,0-.11.1.1,0,0,1,.07,0l.08,0a.18.18,0,0,1,0,.07l0,.06a4.27,4.27,0,0,0,1.55,1.19,4.61,4.61,0,0,0,2,.43,3.7,3.7,0,0,0,2.62-1,3.33,3.33,0,0,0,1-2.48,3.13,3.13,0,0,0-.33-1.45,2.37,2.37,0,0,0-.93-1,7.3,7.3,0,0,0-2.42-.66l-1-.16a5.11,5.11,0,0,1-2.71-1.21,3.24,3.24,0,0,1-.88-2.4A3.71,3.71,0,0,1,141,139a4.77,4.77,0,0,1,3.31-1.1,5.44,5.44,0,0,1,1.66.26,5,5,0,0,1,1.48.73,4.91,4.91,0,0,1,.87.78,2.72,2.72,0,0,1,.48.64m5.23,12s0,.1,0,.12a.12.12,0,0,1-.1.06.08.08,0,0,1-.08,0,.35.35,0,0,1,0-.13v-14H150a.18.18,0,0,1-.1,0,.24.24,0,0,1,0-.12.16.16,0,0,1,0-.11.13.13,0,0,1,.1,0h7.91a.1.1,0,0,1,.09,0,.21.21,0,0,1,0,.13.12.12,0,0,1,0,.09.09.09,0,0,1-.08,0h-3.86Zm5.8-14.22a.16.16,0,0,1,0-.12.13.13,0,0,1,.09-.05s.07,0,.08,0a.21.21,0,0,1,0,.13V152.3a.15.15,0,0,1,0,.12.12.12,0,0,1-.09.06.08.08,0,0,1-.08,0,.21.21,0,0,1,0-.13Zm12,1.58,0,0,.07.12a.25.25,0,0,1,0,.07.16.16,0,0,1,0,.09s0,0-.06,0h0l-.05,0,0,0a8,8,0,0,0-1.95-1.46,4.64,4.64,0,0,0-3.63.06,5.16,5.16,0,0,0-1.65,1.16,7,7,0,0,0-1.5,2.46,8.34,8.34,0,0,0-.55,3,8.05,8.05,0,0,0,.44,2.65,7.52,7.52,0,0,0,1.21,2.3,6.23,6.23,0,0,0,1.82,1.52,4.55,4.55,0,0,0,4.08.11,4.67,4.67,0,0,0,1.63-1.2l.06-.06,0,0a.23.23,0,0,1,.11-.08s.06,0,.07,0,0,.05,0,.09a.15.15,0,0,1,0,.07.09.09,0,0,1,0,.06l0,0a4.1,4.1,0,0,1-1.57,1.24,5.07,5.07,0,0,1-2.25.57,4.74,4.74,0,0,1-2.21-.58,6.32,6.32,0,0,1-1.89-1.59,8,8,0,0,1-1.27-2.39,8.39,8.39,0,0,1-.46-2.77,8.59,8.59,0,0,1,.46-2.79,8,8,0,0,1,1.27-2.41,5.55,5.55,0,0,1,1.87-1.57,4.81,4.81,0,0,1,2.23-.55,4.64,4.64,0,0,1,2.08.49,5.17,5.17,0,0,1,1.71,1.34m13.62.61,0,0,0,.13a.21.21,0,0,1,0,.11.11.11,0,0,1-.09.05l0,0a.1.1,0,0,1,0-.05l0-.07a4.47,4.47,0,0,0-1.82-1.66,5.55,5.55,0,0,0-2.63-.63,4.34,4.34,0,0,0-3,1,3.42,3.42,0,0,0-1.15,2.65,3,3,0,0,0,.82,2.19,4.49,4.49,0,0,0,2.44,1.13l1.13.18a7.47,7.47,0,0,1,2.55.74,2.75,2.75,0,0,1,1,1.09,3.44,3.44,0,0,1,.34,1.56,3.59,3.59,0,0,1-1.08,2.69A3.79,3.79,0,0,1,181,152.5a5.26,5.26,0,0,1-1.4-.18,4.48,4.48,0,0,1-1.22-.55,6.37,6.37,0,0,1-.74-.59,2.2,2.2,0,0,1-.39-.41l0-.05,0,0a.22.22,0,0,1,0-.1.2.2,0,0,1,0-.11.12.12,0,0,1,.08,0l.07,0a.13.13,0,0,1,.06.07l0,.06a4.27,4.27,0,0,0,1.55,1.19,4.55,4.55,0,0,0,2,.43,3.66,3.66,0,0,0,2.61-1,3.31,3.31,0,0,0,1-2.48,3.13,3.13,0,0,0-.33-1.45,2.45,2.45,0,0,0-.94-1,7.14,7.14,0,0,0-2.41-.66l-1-.16a5.18,5.18,0,0,1-2.72-1.21,3.27,3.27,0,0,1-.87-2.4,3.71,3.71,0,0,1,1.23-2.91,4.75,4.75,0,0,1,3.3-1.1,5.5,5.5,0,0,1,1.67.26,5.05,5.05,0,0,1,1.47.73,5,5,0,0,1,.88.78,3.48,3.48,0,0,1,.48.64m11.24,6.29a9.77,9.77,0,0,1-.23,2.28A5.12,5.12,0,0,1,194,152a4.33,4.33,0,0,1-4.08,0,5.1,5.1,0,0,1-1.66-1.5,4.8,4.8,0,0,1-.76-1.65,8.76,8.76,0,0,1-.25-2.28v-8.48a.29.29,0,0,1,.05-.13.13.13,0,0,1,.09,0s.07,0,.08,0a.23.23,0,0,1,0,.13v8.43a9.47,9.47,0,0,0,.23,2.26,4.38,4.38,0,0,0,.76,1.58,4.61,4.61,0,0,0,1.56,1.38,4,4,0,0,0,1.91.47,4.12,4.12,0,0,0,1.91-.47,4.76,4.76,0,0,0,1.57-1.38,4.16,4.16,0,0,0,.75-1.57,8.9,8.9,0,0,0,.24-2.27v-8.43a.2.2,0,0,1,0-.13.12.12,0,0,1,.08,0s.07,0,.08,0a.21.21,0,0,1,0,.13Zm5.36.31,6.35,5.36s0,0,.05.05l0,.06a.21.21,0,0,1,0,.1.08.08,0,0,1-.08.05h0l0,0-6.65-5.59a0,0,0,0,0,0,0,.18.18,0,0,1-.09-.16.2.2,0,0,1,0-.09.1.1,0,0,1,.08,0h.11a6.71,6.71,0,0,0,.82,0,9.85,9.85,0,0,0,1.75-.12,3.26,3.26,0,0,0,1.1-.44,3.06,3.06,0,0,0,1.22-1.41,5.95,5.95,0,0,0,.06-4.18,3.63,3.63,0,0,0-1-1.45,2.65,2.65,0,0,0-1-.55,6.21,6.21,0,0,0-1.6-.16h-3.6v14a.15.15,0,0,1,0,.12.09.09,0,0,1-.09.06.09.09,0,0,1-.08,0s0-.07,0-.13V138.15a.14.14,0,0,1,.06-.12.3.3,0,0,1,.19-.05h3.77a3.85,3.85,0,0,1,3,1.16,4.7,4.7,0,0,1,1.06,3.29,4.55,4.55,0,0,1-1.12,3.33,4.41,4.41,0,0,1-3.29,1.14h-.5a1.56,1.56,0,0,1-.31,0M219.9,148h-6.61a.1.1,0,0,1-.09,0,.21.21,0,0,1,0-.12.18.18,0,0,1,0-.11.13.13,0,0,1,.1,0H220a.16.16,0,0,1,.11,0,.19.19,0,0,1,0,.12,2.81,2.81,0,0,1-.26.76,8.27,8.27,0,0,1-.65,1.19,6,6,0,0,1-2,2,4.54,4.54,0,0,1-2.43.69,4.74,4.74,0,0,1-2.2-.57,6.13,6.13,0,0,1-1.9-1.6,7.8,7.8,0,0,1-1.27-2.39,8.47,8.47,0,0,1-.46-2.77,8.59,8.59,0,0,1,.46-2.79,7.83,7.83,0,0,1,1.28-2.41,5.43,5.43,0,0,1,1.86-1.57,4.88,4.88,0,0,1,2.24-.55,4.75,4.75,0,0,1,2,.43,4.43,4.43,0,0,1,1.57,1.18l0,.06a.27.27,0,0,1,.06.1.13.13,0,0,1,0,.07.17.17,0,0,1,0,.1s0,0-.06,0l-.07-.05,0,0,0,0a6.11,6.11,0,0,0-1.74-1.23,4.26,4.26,0,0,0-1.7-.33,4.64,4.64,0,0,0-1.91.4,5.14,5.14,0,0,0-1.63,1.16,6.81,6.81,0,0,0-1.51,2.45,8.36,8.36,0,0,0-.56,3,8.06,8.06,0,0,0,.45,2.65,7.47,7.47,0,0,0,1.21,2.29,6,6,0,0,0,1.84,1.53,4.4,4.4,0,0,0,2.11.55,4.54,4.54,0,0,0,3-1.1A7,7,0,0,0,219.9,148"/><path class="cls-3" d="M3.3,138.08a.21.21,0,0,1,0-.12s0,0,.1-.05a.09.09,0,0,1,.08,0,.35.35,0,0,1,0,.13V152.3a.19.19,0,0,1,0,.12.12.12,0,0,1-.1.06.09.09,0,0,1-.08,0,.35.35,0,0,1,0-.13Zm3.28.38V152.3a.15.15,0,0,1,0,.12.09.09,0,0,1-.09.06.08.08,0,0,1-.07,0,.21.21,0,0,1,0-.13V138.09a.32.32,0,0,1,0-.16.08.08,0,0,1,.07,0s.07,0,.09,0l0,.07,0,.06,8.75,13.85V138.08a.28.28,0,0,1,0-.13s0,0,.07,0a.11.11,0,0,1,.1,0,.26.26,0,0,1,0,.14v14.2a.24.24,0,0,1,0,.14.08.08,0,0,1-.08.06c-.05,0-.1,0-.15-.13l0,0Zm20.14,1.81,0,0,.05.13a.2.2,0,0,1,0,.11.12.12,0,0,1-.09.05.05.05,0,0,1-.05,0l-.05-.05,0-.07a4.44,4.44,0,0,0-1.81-1.66,5.59,5.59,0,0,0-2.64-.63,4.29,4.29,0,0,0-3,1,3.39,3.39,0,0,0-1.15,2.65,3,3,0,0,0,.81,2.19,4.56,4.56,0,0,0,2.44,1.13l1.13.18a7.47,7.47,0,0,1,2.56.74,2.75,2.75,0,0,1,1,1.09,3.44,3.44,0,0,1,.34,1.56,3.56,3.56,0,0,1-1.09,2.69,3.79,3.79,0,0,1-2.78,1.06,5.19,5.19,0,0,1-1.39-.18,4.68,4.68,0,0,1-1.23-.55,6.3,6.3,0,0,1-.73-.59,3,3,0,0,1-.4-.41l0-.05s0,0,0,0a.22.22,0,0,1,0-.1.2.2,0,0,1,0-.11.12.12,0,0,1,.08,0l.07,0,.06.07,0,.06a4.23,4.23,0,0,0,1.54,1.19,4.61,4.61,0,0,0,2,.43,3.69,3.69,0,0,0,2.62-1,3.31,3.31,0,0,0,1-2.48,3.13,3.13,0,0,0-.34-1.45,2.37,2.37,0,0,0-.93-1,7.22,7.22,0,0,0-2.4-.66l-1-.16a5.11,5.11,0,0,1-2.72-1.21,3.28,3.28,0,0,1-.88-2.4A3.71,3.71,0,0,1,18.91,139a4.79,4.79,0,0,1,3.31-1.1,5.39,5.39,0,0,1,1.66.26,5,5,0,0,1,1.48.73,4.91,4.91,0,0,1,.87.78A3.23,3.23,0,0,1,26.72,140.27Zm5.23,12a.15.15,0,0,1,0,.12s0,.06-.08.06a.08.08,0,0,1-.08,0,.21.21,0,0,1,0-.13v-14H27.89a.13.13,0,0,1-.09,0,.17.17,0,0,1,0-.12.16.16,0,0,1,0-.11.15.15,0,0,1,.1,0H35.8c.05,0,.08,0,.09,0a.21.21,0,0,1,0,.13.16.16,0,0,1,0,.09.12.12,0,0,1-.09,0H32Zm5.8-14.22a.21.21,0,0,1,0-.12.13.13,0,0,1,.09-.05c.05,0,.07,0,.09,0a.35.35,0,0,1,0,.13V152.3a.15.15,0,0,1,0,.12.1.1,0,0,1-.09.06.09.09,0,0,1-.08,0s0-.07,0-.13ZM44,152.3a.19.19,0,0,1,0,.12.12.12,0,0,1-.09.06.11.11,0,0,1-.09,0s0-.07,0-.13v-14H40a.13.13,0,0,1-.09,0,.17.17,0,0,1,0-.12.16.16,0,0,1,0-.11.15.15,0,0,1,.1,0h7.9a.11.11,0,0,1,.1,0,.21.21,0,0,1,0,.13.12.12,0,0,1,0,.09.1.1,0,0,1-.09,0H44Zm14.87-5.74a9.72,9.72,0,0,1-.24,2.28,4.82,4.82,0,0,1-.77,1.65,5,5,0,0,1-1.65,1.5,4.3,4.3,0,0,1-2,.51,4.22,4.22,0,0,1-2-.51,5.1,5.1,0,0,1-1.66-1.5,4.8,4.8,0,0,1-.76-1.65,8.76,8.76,0,0,1-.25-2.28v-8.48a.29.29,0,0,1,.05-.13.12.12,0,0,1,.08,0s.08,0,.09,0a.23.23,0,0,1,0,.13v8.43a9,9,0,0,0,.23,2.26,4.53,4.53,0,0,0,.75,1.58,4.7,4.7,0,0,0,1.56,1.38,4.12,4.12,0,0,0,3.82,0,4.7,4.7,0,0,0,1.58-1.38,4.48,4.48,0,0,0,.75-1.57,9.44,9.44,0,0,0,.23-2.27v-8.43a.28.28,0,0,1,0-.13.13.13,0,0,1,.09,0,.08.08,0,0,1,.08,0,.21.21,0,0,1,0,.13Zm5.71,5.74a.19.19,0,0,1,0,.12.1.1,0,0,1-.09.06.08.08,0,0,1-.08,0,.21.21,0,0,1,0-.13v-14H60.52a.15.15,0,0,1-.09,0,.17.17,0,0,1,0-.12.16.16,0,0,1,0-.11.17.17,0,0,1,.1,0h7.91a.11.11,0,0,1,.1,0,.21.21,0,0,1,0,.13.18.18,0,0,1,0,.09.12.12,0,0,1-.09,0H64.59Zm5.64-4.24H69a.11.11,0,0,1-.1-.05.21.21,0,0,1,0-.12s0-.09,0-.11a.2.2,0,0,1,.1,0h1.2v-9.59a.15.15,0,0,1,.07-.13.24.24,0,0,1,.18-.05H77.9a.14.14,0,0,1,.1.05.27.27,0,0,1,0,.12.15.15,0,0,1,0,.1.13.13,0,0,1-.1,0H70.47v9.47h7.66a.11.11,0,0,1,.08.06.15.15,0,0,1,0,.11.13.13,0,0,1,0,.1.1.1,0,0,1-.09,0H70.47v4H77.9a.18.18,0,0,1,.1,0,.17.17,0,0,1,0,.1.21.21,0,0,1,0,.13s0,0-.1,0H70.48c-.11,0-.17,0-.21-.07a.49.49,0,0,1,0-.25ZM83,145.16a8.67,8.67,0,0,0,.43,2.67,7.55,7.55,0,0,0,1.22,2.28,6,6,0,0,0,1.81,1.52,4.47,4.47,0,0,0,4.26,0,5.82,5.82,0,0,0,1.82-1.52,7,7,0,0,0,1.21-2.26,8.85,8.85,0,0,0,.41-2.69,9,9,0,0,0-.41-2.72,7,7,0,0,0-1.21-2.27,5.5,5.5,0,0,0-1.8-1.52,4.69,4.69,0,0,0-2.15-.51,4.54,4.54,0,0,0-1.88.4,5.29,5.29,0,0,0-1.65,1.18,7.06,7.06,0,0,0-1.52,2.45A8.46,8.46,0,0,0,83,145.16Zm-.24,0a8.93,8.93,0,0,1,.45-2.81A7.47,7.47,0,0,1,84.51,140a5.78,5.78,0,0,1,1.88-1.57,4.87,4.87,0,0,1,2.23-.55,4.92,4.92,0,0,1,2.25.55A5.58,5.58,0,0,1,92.75,140,7.63,7.63,0,0,1,94,142.33a9,9,0,0,1,.44,2.82,9.15,9.15,0,0,1-.34,2.47,7.79,7.79,0,0,1-1,2.17,5.94,5.94,0,0,1-2,2,4.62,4.62,0,0,1-4.7.15,6.09,6.09,0,0,1-1.9-1.59,7.83,7.83,0,0,1-1.26-2.38A8.86,8.86,0,0,1,82.8,145.15Zm13.58,2.91H95.19a.12.12,0,0,1-.1-.05.21.21,0,0,1,0-.12s0-.09,0-.11a.17.17,0,0,1,.1,0h1.19v-9.59a.2.2,0,0,1,.06-.13.29.29,0,0,1,.19-.05h7.44a.1.1,0,0,1,.08.05.19.19,0,0,1,0,.12.15.15,0,0,1,0,.1.12.12,0,0,1-.09,0H96.63v9.47h7.65a.1.1,0,0,1,.09.06.15.15,0,0,1,0,.11.11.11,0,0,1,0,.1s-.05,0-.09,0H96.63v4.24a.19.19,0,0,1,0,.12.11.11,0,0,1-.1.06.09.09,0,0,1-.08,0,.22.22,0,0,1,0-.13ZM111.88,138a13,13,0,0,1,1.86.1,5.16,5.16,0,0,1,1.22.33,3.87,3.87,0,0,1,1.88,1.76,6.34,6.34,0,0,1,.65,3,6.58,6.58,0,0,1-.49,2.62,3.92,3.92,0,0,1-1.37,1.77,3.77,3.77,0,0,1-1.5.62,17.2,17.2,0,0,1-3.13.18h-1.46v3.94a.19.19,0,0,1,0,.12.12.12,0,0,1-.1.06.1.1,0,0,1-.08,0,.23.23,0,0,1,0-.13V138.16a.15.15,0,0,1,.07-.13.26.26,0,0,1,.18-.05Zm.29.3h-2.63v9.78h1.72a18.12,18.12,0,0,0,2.71-.14,4.17,4.17,0,0,0,1.33-.47,3.49,3.49,0,0,0,1.43-1.67,6.19,6.19,0,0,0,.51-2.6,4.94,4.94,0,0,0-1.23-3.7A5.36,5.36,0,0,0,112.17,138.28Zm7.33,13.82H127l.08,0a.18.18,0,0,1,0,.1.21.21,0,0,1,0,.13.12.12,0,0,1-.09,0h-7.43c-.11,0-.18,0-.21-.07a.39.39,0,0,1,0-.25v-14a.16.16,0,0,1,0-.12s0-.05.08-.05a.13.13,0,0,1,.09,0,.28.28,0,0,1,0,.13Zm10.05-4.35h7.57l-3.77-9.4Zm-.12.31-1.78,4.37a.15.15,0,0,1,0,.06h0a.16.16,0,0,1-.09,0,.18.18,0,0,1,0-.11v0s0,0,0,0l1.73-4.24H128a.11.11,0,0,1-.09-.05.21.21,0,0,1,0-.12.16.16,0,0,1,0-.11.2.2,0,0,1,.1,0h1.27l3.95-9.67s0,0,0,0,.06-.12.1-.13.11.05.15.14l0,0,5.7,14.22s0,0,0,0v0a.28.28,0,0,1,0,.13.11.11,0,0,1-.09.05,0,0,0,0,1,0,0,.16.16,0,0,1-.05-.08l-1.78-4.36Zm19.39-7.79,0,0,.06.13a.2.2,0,0,1,0,.11.14.14,0,0,1-.1.05l-.05,0,0-.05,0-.07a4.44,4.44,0,0,0-1.81-1.66,5.62,5.62,0,0,0-2.64-.63,4.29,4.29,0,0,0-3,1,3.4,3.4,0,0,0-1.16,2.65,3,3,0,0,0,.82,2.19,4.53,4.53,0,0,0,2.44,1.13l1.13.18a7.55,7.55,0,0,1,2.56.74,2.65,2.65,0,0,1,1,1.09,3.44,3.44,0,0,1,.34,1.56,3.59,3.59,0,0,1-1.08,2.69,3.79,3.79,0,0,1-2.78,1.06,5.14,5.14,0,0,1-1.39-.18,4.54,4.54,0,0,1-1.23-.55,5.62,5.62,0,0,1-.74-.59,3.39,3.39,0,0,1-.39-.41l0-.05s0,0,0,0a.26.26,0,0,1,0-.1.21.21,0,0,1,0-.11.1.1,0,0,1,.07,0l.08,0a.18.18,0,0,1,0,.07l0,.06a4.27,4.27,0,0,0,1.55,1.19,4.61,4.61,0,0,0,2,.43,3.7,3.7,0,0,0,2.62-1,3.33,3.33,0,0,0,1-2.48,3.13,3.13,0,0,0-.33-1.45,2.37,2.37,0,0,0-.93-1,7.3,7.3,0,0,0-2.42-.66l-1-.16a5.11,5.11,0,0,1-2.71-1.21,3.24,3.24,0,0,1-.88-2.4A3.71,3.71,0,0,1,141,139a4.77,4.77,0,0,1,3.31-1.1,5.44,5.44,0,0,1,1.66.26,5,5,0,0,1,1.48.73,4.91,4.91,0,0,1,.87.78A2.72,2.72,0,0,1,148.82,140.27Zm5.23,12s0,.1,0,.12a.12.12,0,0,1-.1.06.08.08,0,0,1-.08,0,.35.35,0,0,1,0-.13v-14H150a.18.18,0,0,1-.1,0,.24.24,0,0,1,0-.12.16.16,0,0,1,0-.11.13.13,0,0,1,.1,0h7.91a.1.1,0,0,1,.09,0,.21.21,0,0,1,0,.13.12.12,0,0,1,0,.09.09.09,0,0,1-.08,0h-3.86Zm5.8-14.22a.16.16,0,0,1,0-.12.13.13,0,0,1,.09-.05s.07,0,.08,0a.21.21,0,0,1,0,.13V152.3a.15.15,0,0,1,0,.12.12.12,0,0,1-.09.06.08.08,0,0,1-.08,0,.21.21,0,0,1,0-.13Zm12,1.58,0,0,.07.12a.25.25,0,0,1,0,.07.16.16,0,0,1,0,.09s0,0-.06,0h0l-.05,0,0,0a8,8,0,0,0-1.95-1.46,4.64,4.64,0,0,0-3.63.06,5.16,5.16,0,0,0-1.65,1.16,7,7,0,0,0-1.5,2.46,8.34,8.34,0,0,0-.55,3,8.05,8.05,0,0,0,.44,2.65,7.52,7.52,0,0,0,1.21,2.3,6.23,6.23,0,0,0,1.82,1.52,4.55,4.55,0,0,0,4.08.11,4.67,4.67,0,0,0,1.63-1.2l.06-.06,0,0a.23.23,0,0,1,.11-.08s.06,0,.07,0,0,.05,0,.09a.15.15,0,0,1,0,.07.09.09,0,0,1,0,.06l0,0a4.1,4.1,0,0,1-1.57,1.24,5.07,5.07,0,0,1-2.25.57,4.74,4.74,0,0,1-2.21-.58,6.32,6.32,0,0,1-1.89-1.59,8,8,0,0,1-1.27-2.39,8.39,8.39,0,0,1-.46-2.77,8.59,8.59,0,0,1,.46-2.79,8,8,0,0,1,1.27-2.41,5.55,5.55,0,0,1,1.87-1.57,4.81,4.81,0,0,1,2.23-.55,4.64,4.64,0,0,1,2.08.49A5.17,5.17,0,0,1,171.81,139.66Zm13.62.61,0,0,0,.13a.21.21,0,0,1,0,.11.11.11,0,0,1-.09.05l0,0a.1.1,0,0,1,0-.05l0-.07a4.47,4.47,0,0,0-1.82-1.66,5.55,5.55,0,0,0-2.63-.63,4.34,4.34,0,0,0-3,1,3.42,3.42,0,0,0-1.15,2.65,3,3,0,0,0,.82,2.19,4.49,4.49,0,0,0,2.44,1.13l1.13.18a7.47,7.47,0,0,1,2.55.74,2.75,2.75,0,0,1,1,1.09,3.44,3.44,0,0,1,.34,1.56,3.59,3.59,0,0,1-1.08,2.69A3.79,3.79,0,0,1,181,152.5a5.26,5.26,0,0,1-1.4-.18,4.48,4.48,0,0,1-1.22-.55,6.37,6.37,0,0,1-.74-.59,2.2,2.2,0,0,1-.39-.41l0-.05,0,0a.22.22,0,0,1,0-.1.2.2,0,0,1,0-.11.12.12,0,0,1,.08,0l.07,0a.13.13,0,0,1,.06.07l0,.06a4.27,4.27,0,0,0,1.55,1.19,4.55,4.55,0,0,0,2,.43,3.66,3.66,0,0,0,2.61-1,3.31,3.31,0,0,0,1-2.48,3.13,3.13,0,0,0-.33-1.45,2.45,2.45,0,0,0-.94-1,7.14,7.14,0,0,0-2.41-.66l-1-.16a5.18,5.18,0,0,1-2.72-1.21,3.27,3.27,0,0,1-.87-2.4,3.71,3.71,0,0,1,1.23-2.91,4.75,4.75,0,0,1,3.3-1.1,5.5,5.5,0,0,1,1.67.26,5.05,5.05,0,0,1,1.47.73,5,5,0,0,1,.88.78A3.48,3.48,0,0,1,185.43,140.27Zm11.24,6.29a9.77,9.77,0,0,1-.23,2.28A5.12,5.12,0,0,1,194,152a4.33,4.33,0,0,1-4.08,0,5.1,5.1,0,0,1-1.66-1.5,4.8,4.8,0,0,1-.76-1.65,8.76,8.76,0,0,1-.25-2.28v-8.48a.29.29,0,0,1,.05-.13.13.13,0,0,1,.09,0s.07,0,.08,0a.23.23,0,0,1,0,.13v8.43a9.47,9.47,0,0,0,.23,2.26,4.38,4.38,0,0,0,.76,1.58,4.61,4.61,0,0,0,1.56,1.38,4,4,0,0,0,1.91.47,4.12,4.12,0,0,0,1.91-.47,4.76,4.76,0,0,0,1.57-1.38,4.16,4.16,0,0,0,.75-1.57,8.9,8.9,0,0,0,.24-2.27v-8.43a.2.2,0,0,1,0-.13.12.12,0,0,1,.08,0s.07,0,.08,0a.21.21,0,0,1,0,.13Zm5.36.31,6.35,5.36s0,0,.05.05l0,.06a.21.21,0,0,1,0,.1.08.08,0,0,1-.08.05h0l0,0-6.65-5.59a0,0,0,0,0,0,0,.18.18,0,0,1-.09-.16.2.2,0,0,1,0-.09.1.1,0,0,1,.08,0h.11a6.71,6.71,0,0,0,.82,0,9.85,9.85,0,0,0,1.75-.12,3.26,3.26,0,0,0,1.1-.44,3.06,3.06,0,0,0,1.22-1.41,5.95,5.95,0,0,0,.06-4.18,3.63,3.63,0,0,0-1-1.45,2.65,2.65,0,0,0-1-.55,6.21,6.21,0,0,0-1.6-.16h-3.6v14a.15.15,0,0,1,0,.12.09.09,0,0,1-.09.06.09.09,0,0,1-.08,0s0-.07,0-.13V138.15a.14.14,0,0,1,.06-.12.3.3,0,0,1,.19-.05h3.77a3.85,3.85,0,0,1,3,1.16,4.7,4.7,0,0,1,1.06,3.29,4.55,4.55,0,0,1-1.12,3.33,4.41,4.41,0,0,1-3.29,1.14h-.5A1.56,1.56,0,0,1,202,146.87ZM219.9,148h-6.61a.1.1,0,0,1-.09,0,.21.21,0,0,1,0-.12.18.18,0,0,1,0-.11.13.13,0,0,1,.1,0H220a.16.16,0,0,1,.11,0,.19.19,0,0,1,0,.12,2.81,2.81,0,0,1-.26.76,8.27,8.27,0,0,1-.65,1.19,6,6,0,0,1-2,2,4.54,4.54,0,0,1-2.43.69,4.74,4.74,0,0,1-2.2-.57,6.13,6.13,0,0,1-1.9-1.6,7.8,7.8,0,0,1-1.27-2.39,8.47,8.47,0,0,1-.46-2.77,8.59,8.59,0,0,1,.46-2.79,7.83,7.83,0,0,1,1.28-2.41,5.43,5.43,0,0,1,1.86-1.57,4.88,4.88,0,0,1,2.24-.55,4.75,4.75,0,0,1,2,.43,4.43,4.43,0,0,1,1.57,1.18l0,.06a.27.27,0,0,1,.06.1.13.13,0,0,1,0,.07.17.17,0,0,1,0,.1s0,0-.06,0l-.07-.05,0,0,0,0a6.11,6.11,0,0,0-1.74-1.23,4.26,4.26,0,0,0-1.7-.33,4.64,4.64,0,0,0-1.91.4,5.14,5.14,0,0,0-1.63,1.16,6.81,6.81,0,0,0-1.51,2.45,8.36,8.36,0,0,0-.56,3,8.06,8.06,0,0,0,.45,2.65,7.47,7.47,0,0,0,1.21,2.29,6,6,0,0,0,1.84,1.53,4.4,4.4,0,0,0,2.11.55,4.54,4.54,0,0,0,3-1.1A7,7,0,0,0,219.9,148Z"/><path class="cls-2" d="M221.77,148.06h-1.2a.15.15,0,0,1-.1,0,.28.28,0,0,1,0-.13s0-.09,0-.11a.2.2,0,0,1,.1,0h1.2v-9.59a.17.17,0,0,1,.07-.14.36.36,0,0,1,.19,0h7.42a.14.14,0,0,1,.09.05.27.27,0,0,1,0,.12.13.13,0,0,1,0,.1.12.12,0,0,1-.09,0H222v9.47h7.66a.12.12,0,0,1,.09.06.2.2,0,0,1,0,.11.13.13,0,0,1,0,.1.11.11,0,0,1-.09,0H222v4h7.44a.18.18,0,0,1,.09,0,.17.17,0,0,1,0,.1c0,.07,0,.11,0,.13s0,0-.09,0H222c-.12,0-.18,0-.21-.06a.51.51,0,0,1,0-.26Zm12.92-1.19,6.36,5.36,0,.05a.1.1,0,0,1,0,.06.19.19,0,0,1,0,.1.1.1,0,0,1-.09.05h0l0,0-6.64-5.59,0,0a.18.18,0,0,1-.09-.16.12.12,0,0,1,0-.09.07.07,0,0,1,.07,0h.11a6.8,6.8,0,0,0,.83,0,9.72,9.72,0,0,0,1.74-.12,3.28,3.28,0,0,0,2.33-1.84,6.13,6.13,0,0,0,.06-4.19,3.65,3.65,0,0,0-1-1.45,2.51,2.51,0,0,0-1-.54,5.69,5.69,0,0,0-1.6-.17h-3.6v14a.18.18,0,0,1,0,.11.1.1,0,0,1-.09.06.11.11,0,0,1-.09,0,.37.37,0,0,1,0-.12V138.16a.18.18,0,0,1,.06-.14.36.36,0,0,1,.19,0h3.76a3.85,3.85,0,0,1,3,1.16,4.7,4.7,0,0,1,1.07,3.29,4.59,4.59,0,0,1-1.12,3.33,4.44,4.44,0,0,1-3.3,1.14H235a1.67,1.67,0,0,1-.32,0m10.75,5.44V145.2l4.52-7.06a.08.08,0,0,0,0,0l0,0a.18.18,0,0,0,0-.1l-.08,0,0,0-.06,0-4.43,7-4.46-7,0,0,0,0a.12.12,0,0,0-.08,0,.26.26,0,0,0,0,.1.08.08,0,0,0,0,0s0,0,0,0l4.5,7.06v7.11a.19.19,0,0,0,0,.12s0,0,.08,0a.09.09,0,0,0,.08-.06s0-.07,0-.11"/><path class="cls-3" d="M221.77,148.06h-1.2a.15.15,0,0,1-.1,0,.28.28,0,0,1,0-.13s0-.09,0-.11a.2.2,0,0,1,.1,0h1.2v-9.59a.17.17,0,0,1,.07-.14.36.36,0,0,1,.19,0h7.42a.14.14,0,0,1,.09.05.27.27,0,0,1,0,.12.13.13,0,0,1,0,.1.12.12,0,0,1-.09,0H222v9.47h7.66a.12.12,0,0,1,.09.06.2.2,0,0,1,0,.11.13.13,0,0,1,0,.1.11.11,0,0,1-.09,0H222v4h7.44a.18.18,0,0,1,.09,0,.17.17,0,0,1,0,.1c0,.07,0,.11,0,.13s0,0-.09,0H222c-.12,0-.18,0-.21-.06a.51.51,0,0,1,0-.26Zm12.92-1.19,6.36,5.36,0,.05a.1.1,0,0,1,0,.06.19.19,0,0,1,0,.1.1.1,0,0,1-.09.05h0l0,0-6.64-5.59,0,0a.18.18,0,0,1-.09-.16.12.12,0,0,1,0-.09.07.07,0,0,1,.07,0h.11a6.8,6.8,0,0,0,.83,0,9.72,9.72,0,0,0,1.74-.12,3.28,3.28,0,0,0,2.33-1.84,6.13,6.13,0,0,0,.06-4.19,3.65,3.65,0,0,0-1-1.45,2.51,2.51,0,0,0-1-.54,5.69,5.69,0,0,0-1.6-.17h-3.6v14a.18.18,0,0,1,0,.11.1.1,0,0,1-.09.06.11.11,0,0,1-.09,0,.37.37,0,0,1,0-.12V138.16a.18.18,0,0,1,.06-.14.36.36,0,0,1,.19,0h3.76a3.85,3.85,0,0,1,3,1.16,4.7,4.7,0,0,1,1.07,3.29,4.59,4.59,0,0,1-1.12,3.33,4.44,4.44,0,0,1-3.3,1.14H235A1.67,1.67,0,0,1,234.69,146.87Zm10.75,5.44V145.2l4.52-7.06a.08.08,0,0,0,0,0l0,0a.18.18,0,0,0,0-.1l-.08,0,0,0-.06,0-4.43,7-4.46-7,0,0,0,0a.12.12,0,0,0-.08,0,.26.26,0,0,0,0,.1.08.08,0,0,0,0,0s0,0,0,0l4.5,7.06v7.11a.19.19,0,0,0,0,.12s0,0,.08,0a.09.09,0,0,0,.08-.06S245.44,152.35,245.44,152.31Z"/><path class="cls-2" d="M254.77,67.34a4,4,0,1,1-4,4,4,4,0,0,1,4-4m0,.53a3.44,3.44,0,1,0,3.43,3.43,3.43,3.43,0,0,0-3.43-3.43"/><path class="cls-2" d="M254.06,71.12h.52a2.44,2.44,0,0,0,1.08-.17.62.62,0,0,0,.29-.59.63.63,0,0,0-.27-.59,2.4,2.4,0,0,0-1.1-.16h-.52ZM255,69a2,2,0,0,1,1.25.33,1.22,1.22,0,0,1,.42,1,1.26,1.26,0,0,1-.32.91,1.58,1.58,0,0,1-1,.39l1.75,1.93h-.85l-1.72-1.93h-.44v1.93h-.66V69Z"/><path class="cls-1" d="M92.92,0h64V1.42a45.54,45.54,0,0,0-7.34,1.76,50.58,50.58,0,0,0-12.24,5.88l-1.62-.15c-.76-.07-1.31-.1-1.66-.1a18.69,18.69,0,0,0-13.29,5.32c-3.73,3.54-5.61,7.48-5.61,11.8a1.62,1.62,0,0,0,.13.76.6.6,0,0,0,.45.26c.36,0,.71-.86,1.08-2.55a17.68,17.68,0,0,1,1.61-4.61,18.24,18.24,0,0,1,6.39-7,15.85,15.85,0,0,1,8.66-2.59h1.29l.88.07a27.27,27.27,0,0,0-7.73,8.22,18,18,0,0,0-2.85,9.28,9.56,9.56,0,0,0,1.19,4.9,9.52,9.52,0,0,0,3.67,3.45q-8.07,14-14.35,18.81a24.16,24.16,0,0,1-15.15,4.82A14.79,14.79,0,0,1,92.92,58V35.09A20.85,20.85,0,0,1,107,30a10.1,10.1,0,0,1,6.35,2,5.93,5.93,0,0,1,2.55,4.82,10.55,10.55,0,0,1-1.32,4.9,21.38,21.38,0,0,1-3.9,5.11,15.48,15.48,0,0,1-3.78,3,7.61,7.61,0,0,1-3.59,1,4.27,4.27,0,0,1-3.11-1.09,4,4,0,0,1-1.12-3A7.39,7.39,0,0,1,100.85,42a16.17,16.17,0,0,1,5-4,21.5,21.5,0,0,1,2.09-.92c1-.36,1.44-.67,1.44-1q0-.15-.21-.24a1.66,1.66,0,0,0-.61-.08,7.48,7.48,0,0,0-2.72.81,19.9,19.9,0,0,0-3.54,2,12.69,12.69,0,0,0-3.42,3.68,8,8,0,0,0-1.19,4.11,5.42,5.42,0,0,0,1.75,4.22,6.71,6.71,0,0,0,4.63,1.57,13.47,13.47,0,0,0,9.65-4.35,13.48,13.48,0,0,0,4.41-9.77,8.58,8.58,0,0,0-3.23-6.95,13.06,13.06,0,0,0-8.53-2.64,21,21,0,0,0-13.48,4.73Zm64,2.87a35.49,35.49,0,0,0-7.42,2.32,30.41,30.41,0,0,0-8.09,5.2,13,13,0,0,1,2.29,1.36,27.31,27.31,0,0,1,2.16,1.85,49.63,49.63,0,0,1,6-5.76c1.57-1.3,3.26-2.57,5.09-3.82Zm0,3.69A51.75,51.75,0,0,0,148,16.07a15.25,15.25,0,0,1,1.15,3.21,15.44,15.44,0,0,1,.36,3.33A13.87,13.87,0,0,1,145.12,33,16.29,16.29,0,0,1,134,37.48q-7,12.24-14.83,18a28.84,28.84,0,0,1-17.53,5.78,20.19,20.19,0,0,1-8.67-1.71v2.09h64ZM130.74,34.74q3.7-6,7.18-10.92c2.31-3.32,4.61-6.33,6.88-9.07a15.61,15.61,0,0,0-2.13-1.85,21.57,21.57,0,0,0-2.55-1.55A39,39,0,0,0,131,20.72c-2.2,3.32-3.31,6.38-3.31,9.15a5.54,5.54,0,0,0,.78,3,5.3,5.3,0,0,0,2.3,1.88M135,35.83a13.38,13.38,0,0,0,9.44-4.09,13.17,13.17,0,0,0,3.68-9.46,10.91,10.91,0,0,0-.26-2.48,11.67,11.67,0,0,0-.8-2.23q-1.93,2.5-5.13,7.31t-6.93,11"/></g></g></svg>